# xmcd
#
# Track frame offsets: 
#        150
#        10968
#        25853
#        38390
#        57444
#        66097
#        77699
#        90861
#        102212
#        116109
#
# Disc length: 1933 seconds
#
# Revision: 0
# Processed by: cddbd v1.5.2PL0 Copyright (c) Steve Scherf et al.
# Submitted via: ExactAudioCopyFreeDBPlugin 1.0
#
DISCID=6e078b0a
DTITLE=Starline Rhythm Boys - Masquerade For Heartache
DYEAR=2009
DGENRE=Country
TTITLE0=Masquerade For Heartache
TTITLE1=Jive After Five
TTITLE2=Trucker From Tennessee
TTITLE3=Workin' Man Blues
TTITLE4=Honky Tonk Gal
TTITLE5=Red's Place
TTITLE6=A Mess Of Blues
TTITLE7=Goodbye Train
TTITLE8=I'm Fed Up Drinking Here
TTITLE9=Ubangi Stomp
EXTD=
EXTT0=
EXTT1=
EXTT2=
EXTT3=
EXTT4=
EXTT5=
EXTT6=
EXTT7=
EXTT8=
EXTT9=
PLAYORDER=
